<?xml version="1.0" encoding="utf-8"?>
<!-- Generator: Adobe Illustrator 21.1.0, SVG Export Plug-In . SVG Version: 6.00 Build 0)  -->
<svg version="1.1" id="Ebene_1" xmlns="http://www.w3.org/2000/svg" xmlns:xlink="http://www.w3.org/1999/xlink" x="0px" y="0px"
	 viewBox="0 0 492.1 115.2" style="enable-background:new 0 0 492.1 115.2;" xml:space="preserve">
<g>
	<path d="M45.6,80.3v3.1c0,7.1-1.1,11.4-3.1,14.5c-2.8,4.2-7.6,6.5-13.7,6.5c-9.2,0-14.5-4.7-18.6-10.1l-8.4,7.8
		c3.6,5.6,12.8,13.1,27.5,13.1c11.2,0,19.8-5.2,24.4-13.9c2.3-4.4,3.4-10.1,3.4-18.5v-54h-11V34c-5.2-4.4-11.3-6.4-17.6-6.4
		c-5.3,0-10,1.3-13.8,3.6C6,36.2,0,45.7,0,57s5.9,20.6,14.4,25.7c3.8,2.3,9.1,3.7,14.2,3.7C35.3,86.4,41,84.2,45.6,80.3L45.6,80.3z
		 M45.6,67.6c-3.8,5.2-9.7,8-15.5,8c-10.9,0-18.7-8.5-18.7-18.6c0-9.8,7.2-18.6,18.1-18.6c6.8,0,12.6,3.5,16.1,8V67.6L45.6,67.6z
		 M97.4,54.2l28.2-25.4h-16.1L86,50.4V0H74.6v85.2H86V57.6l28,27.6h15.2L97.4,54.2L97.4,54.2z M162,54.2l28.2-25.4h-16.1l-23.5,21.6
		V0h-11.4v85.2h11.4V57.6l28,27.6h15.2L162,54.2L162,54.2z M247.1,0v41.9c-3.6-5-10.6-10.7-21.4-10.7c-15.6,0-27.1,12.1-27.1,27.7
		c0,15.8,11,27.5,26.8,27.5c11.2,0,19-6.4,21.7-11v9.8h2.4V0H247.1L247.1,0z M247.1,71.2c-3.4,7.1-11.5,13.1-21.7,13.1
		C210.9,84.3,201,73.4,201,59s10.4-25.6,25-25.6c9.1,0,16.7,4.9,21.1,12.5V71.2L247.1,71.2z M269.1,85.2h2.4V32.4h-2.4V85.2
		L269.1,85.2z M266.7,13.2c0,2,1.6,3.6,3.6,3.6s3.6-1.6,3.6-3.6s-1.6-3.6-3.6-3.6C268.3,9.6,266.7,11.2,266.7,13.2L266.7,13.2z
		 M335.4,32.4v9.5c-3.6-5-10.6-10.7-21.4-10.7c-15.6,0-27.1,12.1-27.1,27.7c0,15.8,11,27.5,26.8,27.5c11.2,0,19-6.4,21.7-11v9.8h2.4
		V32.4H335.4L335.4,32.4z M335.4,71.2c-3.4,7.1-11.5,13.1-21.7,13.1c-14.5,0-24.4-10.9-24.4-25.3s10.4-25.6,25-25.6
		c9.1,0,16.7,4.9,21.1,12.5V71.2L335.4,71.2z M357.4,85.2h2.4V0h-2.4V85.2L357.4,85.2z M426.8,58.8c0,14-10.4,25.4-24.5,25.4
		s-24.5-11.4-24.5-25.4s10.4-25.4,24.5-25.4S426.8,44.8,426.8,58.8L426.8,58.8z M375.5,58.8c0,15.2,11.3,27.6,26.9,27.6
		s26.9-12.4,26.9-27.6S418,31.2,402.4,31.2S375.5,43.6,375.5,58.8L375.5,58.8z M489.7,32.4v9.5c-3.6-5-10.6-10.7-21.4-10.7
		c-15.6,0-27.1,12.1-27.1,27.7c0,15.8,11,27.5,26.8,27.5c11.2,0,19-6.4,21.7-11v9.4c0,6.6-0.2,13.9-2.9,18.6
		c-3.5,6.1-10,9.7-18.8,9.7c-11,0-19.1-5.8-22.6-11.3l-1.9,1.4c4,5.8,12.2,12,24.5,12c9.7,0,16.8-3.8,20.9-10.6c3-5,3.2-13,3.2-20
		V32.4H489.7L489.7,32.4z M489.7,71.2c-3.4,7.1-11.5,13.1-21.7,13.1c-14.5,0-24.4-10.9-24.4-25.3s10.4-25.6,25-25.6
		c9.1,0,16.7,4.9,21.1,12.5V71.2L489.7,71.2z"/>
</g>
</svg>
